<?xml version="1.0" encoding="UTF-8" standalone="no"?><!-- Generator: Gravit.io --><svg xmlns="http://www.w3.org/2000/svg" xmlns:xlink="http://www.w3.org/1999/xlink" style="isolation:isolate" viewBox="1 1 98 98" width="98pt" height="98pt"><g><g><path d=" M 23.777 15.355 C 23.777 10.606 27.641 6.742 32.391 6.742 L 67.609 6.742 C 72.359 6.742 76.223 10.606 76.223 15.355 L 76.223 25.691 L 23.777 25.691 L 23.777 15.355 L 23.777 15.355 L 23.777 15.355 L 23.777 15.355 Z  M 93.258 63.016 C 93.258 67.765 89.394 71.629 84.645 71.629 L 81.965 71.629 L 81.965 62.059 L 83.688 62.059 C 85.273 62.059 86.559 60.773 86.559 59.188 C 86.559 57.602 85.273 56.316 83.688 56.316 L 16.313 56.316 C 14.727 56.316 13.441 57.602 13.441 59.188 C 13.441 60.773 14.727 62.059 16.313 62.059 L 18.035 62.059 L 18.035 71.629 L 15.355 71.629 C 10.606 71.629 6.742 67.765 6.742 63.016 L 6.742 40.047 C 6.742 35.298 10.606 31.434 15.355 31.434 L 84.645 31.434 C 89.394 31.434 93.258 35.298 93.258 40.047 L 93.258 63.016 L 93.258 63.016 L 93.258 63.016 L 93.258 63.016 Z  M 57.656 68.566 L 42.344 68.566 C 40.758 68.566 39.473 69.852 39.473 71.438 C 39.473 73.023 40.758 74.309 42.344 74.309 L 57.656 74.309 C 59.242 74.309 60.527 73.023 60.527 71.438 C 60.527 69.852 59.242 68.566 57.656 68.566 L 57.656 68.566 L 57.656 68.566 Z  M 57.656 80.816 L 42.344 80.816 C 40.758 80.816 39.473 82.102 39.473 83.688 C 39.473 85.273 40.758 86.559 42.344 86.559 L 57.656 86.559 C 59.242 86.559 60.527 85.273 60.527 83.688 C 60.527 82.102 59.242 80.816 57.656 80.816 L 57.656 80.816 Z  M 76.223 90.387 C 76.223 91.97 74.935 93.258 73.352 93.258 L 26.648 93.258 C 25.065 93.258 23.777 91.97 23.777 90.387 L 23.777 62.059 L 76.223 62.059 L 76.223 90.387 L 76.223 90.387 L 76.223 90.387 L 76.223 90.387 Z  M 84.645 25.691 L 81.965 25.691 L 81.965 15.355 C 81.965 7.44 75.525 1 67.609 1 L 32.391 1 C 24.475 1 18.035 7.44 18.035 15.355 L 18.035 25.691 L 15.355 25.691 C 7.44 25.691 1 32.131 1 40.047 L 1 63.016 C 1 70.931 7.44 77.371 15.355 77.371 L 18.035 77.371 L 18.035 90.387 C 18.035 95.136 21.899 99 26.648 99 L 73.352 99 C 78.101 99 81.965 95.136 81.965 90.387 L 81.965 77.371 L 84.645 77.371 C 92.56 77.371 99 70.931 99 63.016 L 99 40.047 C 99 32.131 92.56 25.691 84.645 25.691 L 84.645 25.691 L 84.645 25.691 L 84.645 25.691 Z  M 25.594 37.941 L 16.406 37.941 C 14.821 37.941 13.535 39.227 13.535 40.813 C 13.535 42.398 14.821 43.684 16.406 43.684 L 25.594 43.684 C 27.179 43.684 28.465 42.398 28.465 40.813 C 28.465 39.227 27.179 37.941 25.594 37.941 Z " fill-rule="evenodd" fill="rgb(0,0,0)"/></g></g></svg>